<?xml version="1.0" standalone="no"?>
<!DOCTYPE svg PUBLIC "-//W3C//DTD SVG 20010904//EN"
 "http://www.w3.org/TR/2001/REC-SVG-20010904/DTD/svg10.dtd">
<svg version="1.0" xmlns="http://www.w3.org/2000/svg"
 width="500.000000pt" height="500.000000pt" viewBox="0 0 500.000000 500.000000"
 preserveAspectRatio="xMidYMid meet">
<metadata>
Created by potrace 1.14, written by Peter Selinger 2001-2017
</metadata>
<g transform="translate(0.000000,500.000000) scale(0.100000,-0.100000)"
fill="#000000" stroke="none">
<path d="M2325 4990 c-135 -11 -326 -43 -461 -79 -323 -86 -662 -259 -931
-476 -423 -340 -737 -848 -858 -1385 -55 -244 -75 -601 -46 -830 68 -537 286
-1017 637 -1401 639 -699 1591 -970 2524 -717 199 54 475 181 665 306 606 398
1000 1011 1112 1732 25 163 25 558 0 720 -144 916 -730 1643 -1591 1975 -313
121 -722 181 -1051 155z m-70 -1240 c53 -22 91 -69 110 -135 43 -145 -58 -279
-210 -279 -152 0 -253 134 -210 279 40 138 171 195 310 135z m780 4 c110 -50
159 -197 102 -305 -28 -54 -101 -105 -161 -114 -127 -19 -256 88 -256 212 0
167 165 275 315 207z"/>
</g>
</svg>
